# File created by Blade
# Date/Time:  Tue Apr 07 21:33:03 2015
# Frame Rate: 120.000 fps
#------------------------------------------------------
:FULLY-SPECIFIED
:DEGREES
316
root 26.973212 31.705037 -12.472697 19.093460 -56.026410 -3.012131
Spine -7.031046 -1.078054 -0.717030
Head 16.376610 3.795612 4.190856
LeftShoulder -20.933184 46.493644 5.097264
LeftArm 51.486579 3.685738 -83.071602
LeftForeArm -3.029748 -0.000000 26.070703
LeftHand 4.956057 -0.000000 -5.923765
LeftHandThumb1 -26.253704 0.000000 33.147579
RightShoulder -4.329432 -9.967690 -15.786662
RightArm 14.212341 -11.676176 87.975713
RightForeArm -0.835042 -0.000000 33.371027
RightHand 5.541630 -0.000000 5.766952
RightHandThumb1 -24.326973 -0.000000 -32.862282
LeftUpLeg -40.745153 10.395427 -6.512655
LeftLeg 26.612890 -0.000000 -0.000000
LeftFoot -13.202803 29.473401 -25.044009
LeftToeBase -8.223657 -0.000000 0.000000
RightUpLeg -12.996553 0.938263 6.487439
RightLeg 17.944836 -0.000000 -0.000000
RightFoot -19.847810 -21.426654 10.740050
RightToeBase -9.317502 -0.000000 0.000000
317
root 27.070372 31.721486 -12.574004 18.941030 -56.193604 -2.989247
Spine -6.873875 -1.185467 -0.724883
Head 17.024047 2.896639 4.116417
LeftShoulder -20.872687 46.483410 5.165917
LeftArm 51.616129 3.749283 -83.076776
LeftForeArm -3.037372 -0.000000 26.067768
LeftHand 4.992264 -0.000000 -5.784572
LeftHandThumb1 -26.253704 0.000000 33.147579
RightShoulder -4.367062 -10.060603 -15.730408
RightArm 14.211535 -11.733150 87.882699
RightForeArm -0.895243 0.000000 33.014877
RightHand 5.390347 -0.000000 5.624722
RightHandThumb1 -24.326973 -0.000000 -32.862282
LeftUpLeg -40.685353 10.073507 -6.077915
LeftLeg 26.688510 -0.000000 -0.000000
LeftFoot -12.706427 28.857323 -25.211518
LeftToeBase -8.423672 -0.000000 0.000000
RightUpLeg -13.280216 1.086486 6.467552
RightLeg 18.269840 -0.000000 -0.000000
RightFoot -19.669508 -21.443061 10.596351
RightToeBase -9.446961 -0.000000 0.000000
318
root 27.163511 31.740072 -12.671731 18.748677 -56.324114 -2.919901
Spine -6.730048 -1.303140 -0.764095
Head 17.746446 1.950254 4.062076
LeftShoulder -20.788871 46.496437 5.260645
LeftArm 51.744718 3.802937 -83.087238
LeftForeArm -3.028467 -0.000000 26.073024
LeftHand 4.938611 -0.000000 -5.738087
LeftHandThumb1 -26.253704 0.000000 33.147579
RightShoulder -4.427237 -10.166975 -15.669020
RightArm 14.183579 -11.716356 87.810787
RightForeArm -0.890976 -0.000000 32.595446
RightHand 5.527520 -0.000000 5.764711
RightHandThumb1 -24.326973 -0.000000 -32.862282
LeftUpLeg -40.614229 9.646356 -5.574311
LeftLeg 26.902791 -0.000000 -0.000000
LeftFoot -12.441533 27.854458 -25.758676
LeftToeBase -8.095247 -0.000000 0.000000
RightUpLeg -13.563589 1.166146 6.439982
RightLeg 18.601666 -0.000000 -0.000000
RightFoot -19.457196 -21.470285 10.420488
RightToeBase -9.587326 -0.000000 0.000000
319
root 27.248737 31.759268 -12.758570 18.511187 -56.391913 -2.854038
Spine -6.569905 -1.512264 -0.750107
Head 18.547606 1.077436 3.969242
LeftShoulder -20.764485 46.531226 5.284813
LeftArm 51.858198 3.870330 -83.095390
LeftForeArm -2.983822 0.000000 26.051427
LeftHand 4.948992 -0.000000 -5.692839
LeftHandThumb1 -26.253704 0.000000 33.147579
RightShoulder -4.458315 -10.291448 -15.659718
RightArm 14.175995 -11.792416 87.747172
RightForeArm -0.988969 -0.000000 32.211705
RightHand 5.359695 -0.000000 5.734428
RightHandThumb1 -24.326973 -0.000000 -32.862282
LeftUpLeg -40.440627 9.101133 -5.046370
LeftLeg 27.019307 -0.000000 -0.000000
LeftFoot -12.076932 27.108202 -25.927804
LeftToeBase -7.974518 -0.000000 0.000000
RightUpLeg -13.762134 1.161253 6.432019
RightLeg 18.891923 -0.000000 -0.000000
RightFoot -19.212363 -21.482084 10.244718
RightToeBase -9.682430 -0.000000 0.000000
320
root 27.341161 31.780531 -12.849070 18.229867 -56.603068 -2.713286
Spine -6.400202 -1.592835 -0.857538
Head 19.343814 0.172295 3.916413
LeftShoulder -20.650119 46.500934 5.423466
LeftArm 51.866075 3.914890 -83.143454
LeftForeArm -2.935190 -0.000000 26.103718
LeftHand 4.871084 -0.000000 -5.686031
LeftHandThumb1 -26.253704 0.000000 33.147579
RightShoulder -4.466463 -10.311778 -15.647393
RightArm 14.064000 -11.781908 87.729197
RightForeArm -0.987251 -0.000000 31.778495
RightHand 5.475261 -0.000000 5.802471
RightHandThumb1 -24.326973 -0.000000 -32.862282
LeftUpLeg -40.286305 8.647606 -4.578269
LeftLeg 27.157376 -0.000000 -0.000000
LeftFoot -11.875557 26.107324 -26.593276
LeftToeBase -7.402719 -0.000000 0.000000
RightUpLeg -14.020821 1.322176 6.336821
RightLeg 19.245246 -0.000000 -0.000000
RightFoot -18.997586 -21.523812 10.106875
RightToeBase -9.741822 -0.000000 0.000000
321
root 27.427147 31.801878 -12.933512 17.917568 -56.741719 -2.594356
Spine -6.188890 -1.723658 -0.918201
Head 20.189031 -0.760534 3.830921
LeftShoulder -20.545310 46.451442 5.533267
LeftArm 51.828591 3.959373 -83.176986
LeftForeArm -2.880195 -0.000000 26.194876
LeftHand 4.844278 -0.000000 -5.741339
LeftHandThumb1 -26.253704 0.000000 33.147579
RightShoulder -4.497036 -10.437267 -15.651888
RightArm 14.051532 -11.839339 87.698551
RightForeArm -0.996719 -0.000000 31.404524
RightHand 5.427728 -0.000000 5.852606
RightHandThumb1 -24.326973 -0.000000 -32.862282
LeftUpLeg -40.063609 8.064673 -4.016440
LeftLeg 27.371090 -0.000000 -0.000000
LeftFoot -11.715968 24.926472 -27.202608
LeftToeBase -6.935289 -0.000000 0.000000
RightUpLeg -14.184411 1.418716 6.274240
RightLeg 19.538024 -0.000000 -0.000000
RightFoot -18.838906 -21.485682 10.074649
RightToeBase -9.882027 -0.000000 0.000000
